<svg xmlns="http://www.w3.org/2000/svg" fill="none" viewBox="0 0 24 24" id="C-Plusplus--Streamline-Svg-Logos" height="24" width="24"><desc>C Plusplus Streamline Icon: https://streamlinehq.com</desc><path fill="#649ad2" d="M22.4535 7.159c-0.00015 -0.395125 -0.08465 -0.7443 -0.25555 -1.043975 -0.167875 -0.294675 -0.419275 -0.54165 -0.7565 -0.736925 -2.783575 -1.605025 -5.56985 -3.2051375 -8.3525 -4.8117925C12.33875 0.13320675 11.611375 0.148996 10.86675 0.5883125 9.7588 1.241725 4.2117 4.419775 2.55875 5.3772c-0.680745 0.394075 -1.01199 0.997175 -1.012155 1.781075 -0.0010625 3.2278 0 6.4555 -0.0010625 9.683375 0 0.386475 0.0810725 0.72885 0.2444475 1.024025 0.167955 0.303575 0.4228725 0.55735 0.76787 0.75705 1.653025 0.957425 7.200875 4.135225 8.308575 4.7888 0.74495 0.439575 1.472325 0.455275 2.22275 0.022025 2.78275 -1.60675 5.5692 -3.206775 8.353175 -4.8118 0.344975 -0.199625 0.5999 -0.45355 0.76785 -0.7569 0.16315 -0.295175 0.244375 -0.63755 0.244375 -1.0241 0 0 0 -6.453875 -0.001075 -9.68175Z" stroke-width="0.25"></path><path fill="#004482" d="M12.0321 11.9685 1.79004 17.865675c0.167955 0.303575 0.4228725 0.55735 0.76786 0.75705 1.65305 0.957425 7.200875 4.135225 8.308575 4.7888 0.74495 0.439575 1.472325 0.455275 2.222775 0.022025 2.78275 -1.60675 5.569175 -3.206775 8.35315 -4.8118 0.345 -0.199625 0.599925 -0.45355 0.767875 -0.7569L12.0321 11.9685Z" stroke-width="0.25"></path><path fill="#1a4674" d="M8.9983 13.7153c0.595975 1.04045 1.71635 1.742225 3.001575 1.742225 1.293175 0 2.419925 -0.710675 3.0129 -1.762275l-2.9809 -1.72675 -3.033575 1.7468Z" stroke-width="0.25"></path><path fill="#01589c" d="M22.45345 7.159075c-0.00015 -0.395125 -0.084675 -0.7443 -0.255575 -1.043975L12.031975 11.968575l10.178175 5.89635c0.163125 -0.295175 0.2442 -0.63755 0.244375 -1.0241 0 0 0 -6.453875 -0.001075 -9.68175Z" stroke-width="0.25"></path><path fill="#ffffff" d="M21.8939 12.389975h-0.79535v0.7955h-0.795525v-0.7955H19.50775v-0.795275h0.795275v-0.79535h0.795525v0.79535h0.79535v0.795275ZM12.0001 5.0564c2.542975 0 4.766425 1.36725 5.976175 3.40655l0.036325 0.062 -3.022125 1.74025c-0.598925 -1.0298 -1.7134 -1.722825 -2.990375 -1.722825 -1.909525 0 -3.4576 1.548 -3.4576 3.457525 0 0.62445 0.166475 1.2098 0.456 1.715375 0.596 1.04045 1.716375 1.742225 3.0016 1.742225 1.27895 0 2.39515 -0.69515 2.99315 -1.727725l0.019725 -0.034525 3.017625 1.74835c-1.19645 2.090625 -3.449 3.499875 -6.0305 3.499875 -2.57675 0 -4.825775 -1.4036 -6.02395 -3.4881 -0.58495 -1.017625 -0.919625 -2.1974 -0.919625 -3.455475 0 -3.83475 3.108675 -6.9435 6.943575 -6.9435Zm6.196325 5.74295v0.79535h0.795275v0.795275h-0.795275v0.7955h-0.79535v-0.7955h-0.79535v-0.795275h0.79535v-0.79535h0.79535Z" stroke-width="0.25"></path></svg>